<svg width="182" height="25" viewBox="0 0 182 25" fill="none" xmlns="http://www.w3.org/2000/svg">
<path d="M3.77273 24H0.818182L9.36364 0.727272H12.2727L20.8182 24H17.8636L10.9091 4.40909H10.7273L3.77273 24ZM4.86364 14.9091H16.7727V17.4091H4.86364V14.9091ZM36.1648 6.54545L29.7102 24H26.983L20.5284 6.54545H23.4375L28.2557 20.4545H28.4375L33.2557 6.54545H36.1648ZM44.3097 24.4091C43.2036 24.4091 42.1998 24.2008 41.2983 23.7841C40.3968 23.3598 39.6809 22.75 39.1506 21.9545C38.6203 21.1515 38.3551 20.1818 38.3551 19.0455C38.3551 18.0455 38.5521 17.2348 38.946 16.6136C39.34 15.9848 39.8665 15.4924 40.5256 15.1364C41.1847 14.7803 41.9119 14.5152 42.7074 14.3409C43.5104 14.1591 44.3172 14.0152 45.1278 13.9091C46.1884 13.7727 47.0483 13.6705 47.7074 13.6023C48.3741 13.5265 48.8589 13.4015 49.1619 13.2273C49.4725 13.053 49.6278 12.75 49.6278 12.3182V12.2273C49.6278 11.1061 49.321 10.2348 48.7074 9.61364C48.1013 8.99242 47.1809 8.68182 45.946 8.68182C44.6657 8.68182 43.6619 8.96212 42.9347 9.52273C42.2074 10.0833 41.696 10.6818 41.4006 11.3182L38.8551 10.4091C39.3097 9.34848 39.9157 8.52273 40.6733 7.93182C41.4384 7.33333 42.2718 6.91667 43.1733 6.68182C44.0824 6.43939 44.9763 6.31818 45.8551 6.31818C46.4157 6.31818 47.0597 6.38636 47.7869 6.52273C48.5218 6.65151 49.2301 6.92045 49.9119 7.32954C50.6013 7.73864 51.1733 8.35606 51.6278 9.18182C52.0824 10.0076 52.3097 11.1136 52.3097 12.5V24H49.6278V21.6364H49.4915C49.3097 22.0152 49.0066 22.4205 48.5824 22.8523C48.1581 23.2841 47.5938 23.6515 46.8892 23.9545C46.1847 24.2576 45.3248 24.4091 44.3097 24.4091ZM44.7188 22C45.7794 22 46.6733 21.7917 47.4006 21.375C48.1354 20.9583 48.6884 20.4205 49.0597 19.7614C49.4384 19.1023 49.6278 18.4091 49.6278 17.6818V15.2273C49.5142 15.3636 49.2642 15.4886 48.8778 15.6023C48.4991 15.7083 48.0597 15.803 47.5597 15.8864C47.0672 15.9621 46.5862 16.0303 46.1165 16.0909C45.6544 16.1439 45.2794 16.1894 44.9915 16.2273C44.2945 16.3182 43.643 16.4659 43.0369 16.6705C42.4384 16.8674 41.9536 17.1667 41.5824 17.5682C41.2188 17.9621 41.0369 18.5 41.0369 19.1818C41.0369 20.1136 41.3816 20.8182 42.071 21.2955C42.768 21.7652 43.6506 22 44.7188 22ZM57.2045 24V6.54545H59.8864V24H57.2045ZM58.5682 3.63636C58.0455 3.63636 57.5947 3.45833 57.2159 3.10227C56.8447 2.74621 56.6591 2.31818 56.6591 1.81818C56.6591 1.31818 56.8447 0.890151 57.2159 0.53409C57.5947 0.17803 58.0455 0 58.5682 0C59.0909 0 59.5379 0.17803 59.9091 0.53409C60.2879 0.890151 60.4773 1.31818 60.4773 1.81818C60.4773 2.31818 60.2879 2.74621 59.9091 3.10227C59.5379 3.45833 59.0909 3.63636 58.5682 3.63636ZM67.4801 0.727272V24H64.7983V0.727272H67.4801ZM79.9375 24H72.7557V0.727272H80.2557C82.5133 0.727272 84.4451 1.19318 86.0511 2.125C87.6572 3.04924 88.8883 4.37879 89.7443 6.11364C90.6004 7.84091 91.0284 9.90909 91.0284 12.3182C91.0284 14.7424 90.5966 16.8295 89.733 18.5795C88.8693 20.322 87.6117 21.6629 85.9602 22.6023C84.3087 23.5341 82.3011 24 79.9375 24ZM75.5739 21.5H79.7557C81.6799 21.5 83.2746 21.1288 84.5398 20.3864C85.8049 19.6439 86.7481 18.5871 87.3693 17.2159C87.9905 15.8447 88.3011 14.2121 88.3011 12.3182C88.3011 10.4394 87.9943 8.82197 87.3807 7.46591C86.767 6.10227 85.8504 5.05682 84.6307 4.32954C83.411 3.5947 81.892 3.22727 80.0739 3.22727H75.5739V21.5ZM102.483 24.3636C100.907 24.3636 99.5246 23.9886 98.3352 23.2386C97.1534 22.4886 96.2292 21.4394 95.5625 20.0909C94.9034 18.7424 94.5739 17.1667 94.5739 15.3636C94.5739 13.5455 94.9034 11.9583 95.5625 10.6023C96.2292 9.24621 97.1534 8.19318 98.3352 7.44318C99.5246 6.69318 100.907 6.31818 102.483 6.31818C104.059 6.31818 105.438 6.69318 106.619 7.44318C107.809 8.19318 108.733 9.24621 109.392 10.6023C110.059 11.9583 110.392 13.5455 110.392 15.3636C110.392 17.1667 110.059 18.7424 109.392 20.0909C108.733 21.4394 107.809 22.4886 106.619 23.2386C105.438 23.9886 104.059 24.3636 102.483 24.3636ZM102.483 21.9545C103.68 21.9545 104.665 21.6477 105.438 21.0341C106.21 20.4205 106.782 19.6136 107.153 18.6136C107.525 17.6136 107.71 16.5303 107.71 15.3636C107.71 14.197 107.525 13.1098 107.153 12.1023C106.782 11.0947 106.21 10.2803 105.438 9.65909C104.665 9.03788 103.68 8.72727 102.483 8.72727C101.286 8.72727 100.301 9.03788 99.5284 9.65909C98.7557 10.2803 98.1837 11.0947 97.8125 12.1023C97.4413 13.1098 97.2557 14.197 97.2557 15.3636C97.2557 16.5303 97.4413 17.6136 97.8125 18.6136C98.1837 19.6136 98.7557 20.4205 99.5284 21.0341C100.301 21.6477 101.286 21.9545 102.483 21.9545ZM114.486 24V6.54545H117.077V9.27273H117.304C117.668 8.34091 118.255 7.61742 119.065 7.10227C119.876 6.57955 120.849 6.31818 121.986 6.31818C123.137 6.31818 124.096 6.57955 124.861 7.10227C125.634 7.61742 126.236 8.34091 126.668 9.27273H126.849C127.296 8.37121 127.967 7.6553 128.861 7.125C129.755 6.58712 130.827 6.31818 132.077 6.31818C133.637 6.31818 134.914 6.80682 135.906 7.78409C136.899 8.75379 137.395 10.2652 137.395 12.3182V24H134.713V12.3182C134.713 11.0303 134.361 10.1098 133.656 9.55682C132.952 9.00379 132.122 8.72727 131.168 8.72727C129.94 8.72727 128.99 9.09848 128.315 9.84091C127.641 10.5758 127.304 11.5076 127.304 12.6364V24H124.577V12.0455C124.577 11.053 124.255 10.2538 123.611 9.64773C122.967 9.03409 122.137 8.72727 121.122 8.72727C120.425 8.72727 119.774 8.91288 119.168 9.28409C118.569 9.6553 118.084 10.1705 117.713 10.8295C117.349 11.4811 117.168 12.2348 117.168 13.0909V24H114.486ZM147.435 24.4091C146.329 24.4091 145.325 24.2008 144.423 23.7841C143.522 23.3598 142.806 22.75 142.276 21.9545C141.745 21.1515 141.48 20.1818 141.48 19.0455C141.48 18.0455 141.677 17.2348 142.071 16.6136C142.465 15.9848 142.991 15.4924 143.651 15.1364C144.31 14.7803 145.037 14.5152 145.832 14.3409C146.635 14.1591 147.442 14.0152 148.253 13.9091C149.313 13.7727 150.173 13.6705 150.832 13.6023C151.499 13.5265 151.984 13.4015 152.287 13.2273C152.598 13.053 152.753 12.75 152.753 12.3182V12.2273C152.753 11.1061 152.446 10.2348 151.832 9.61364C151.226 8.99242 150.306 8.68182 149.071 8.68182C147.791 8.68182 146.787 8.96212 146.06 9.52273C145.332 10.0833 144.821 10.6818 144.526 11.3182L141.98 10.4091C142.435 9.34848 143.041 8.52273 143.798 7.93182C144.563 7.33333 145.397 6.91667 146.298 6.68182C147.207 6.43939 148.101 6.31818 148.98 6.31818C149.541 6.31818 150.185 6.38636 150.912 6.52273C151.647 6.65151 152.355 6.92045 153.037 7.32954C153.726 7.73864 154.298 8.35606 154.753 9.18182C155.207 10.0076 155.435 11.1136 155.435 12.5V24H152.753V21.6364H152.616C152.435 22.0152 152.132 22.4205 151.707 22.8523C151.283 23.2841 150.719 23.6515 150.014 23.9545C149.31 24.2576 148.45 24.4091 147.435 24.4091ZM147.844 22C148.904 22 149.798 21.7917 150.526 21.375C151.26 20.9583 151.813 20.4205 152.185 19.7614C152.563 19.1023 152.753 18.4091 152.753 17.6818V15.2273C152.639 15.3636 152.389 15.4886 152.003 15.6023C151.624 15.7083 151.185 15.803 150.685 15.8864C150.192 15.9621 149.711 16.0303 149.241 16.0909C148.779 16.1439 148.404 16.1894 148.116 16.2273C147.42 16.3182 146.768 16.4659 146.162 16.6705C145.563 16.8674 145.079 17.1667 144.707 17.5682C144.344 17.9621 144.162 18.5 144.162 19.1818C144.162 20.1136 144.507 20.8182 145.196 21.2955C145.893 21.7652 146.776 22 147.844 22ZM160.33 24V6.54545H163.011V24H160.33ZM161.693 3.63636C161.17 3.63636 160.72 3.45833 160.341 3.10227C159.97 2.74621 159.784 2.31818 159.784 1.81818C159.784 1.31818 159.97 0.890151 160.341 0.53409C160.72 0.17803 161.17 0 161.693 0C162.216 0 162.663 0.17803 163.034 0.53409C163.413 0.890151 163.602 1.31818 163.602 1.81818C163.602 2.31818 163.413 2.74621 163.034 3.10227C162.663 3.45833 162.216 3.63636 161.693 3.63636ZM170.605 13.5V24H167.923V6.54545H170.514V9.27273H170.741C171.151 8.38636 171.772 7.67424 172.605 7.13636C173.438 6.59091 174.514 6.31818 175.832 6.31818C177.014 6.31818 178.048 6.56061 178.935 7.04545C179.821 7.52273 180.51 8.25 181.003 9.22727C181.495 10.197 181.741 11.4242 181.741 12.9091V24H179.06V13.0909C179.06 11.7197 178.704 10.6515 177.991 9.88636C177.279 9.11364 176.302 8.72727 175.06 8.72727C174.204 8.72727 173.438 8.91288 172.764 9.28409C172.098 9.6553 171.571 10.197 171.185 10.9091C170.798 11.6212 170.605 12.4848 170.605 13.5Z" fill="black"/>
</svg>
